<svg width="15" height="15" viewBox="0 0 15 15" fill="none" xmlns="http://www.w3.org/2000/svg">
<g opacity="0.9">
<path d="M12.93 4.60151L10.3976 2.06919C10.3626 2.03418 10.3211 2.0064 10.2754 1.98745C10.2296 1.96849 10.1806 1.95874 10.1311 1.95874C10.0816 1.95874 10.0326 1.96849 9.98682 1.98745C9.94108 2.0064 9.89952 2.03418 9.86452 2.06919L2.93382 8.99975L2.94908 9.01501L2.92514 9.00857L1.97706 12.5467L1.97762 12.5468C1.95536 12.6129 1.95197 12.684 1.96785 12.7519C1.98373 12.8199 2.01824 12.8821 2.0675 12.9315C2.1221 12.986 2.19213 13.0223 2.26809 13.0356C2.34406 13.0489 2.42227 13.0385 2.49212 13.0059L2.4924 13.0071L5.99618 12.0683L5.99394 12.06L5.99926 12.0653L12.93 5.13463C12.965 5.09963 12.9928 5.05808 13.0117 5.01234C13.0307 4.9666 13.0404 4.91758 13.0404 4.86807C13.0404 4.81856 13.0307 4.76954 13.0117 4.7238C12.9928 4.67807 12.965 4.63651 12.93 4.60151ZM3.13024 11.8605L3.69332 9.75925L5.23164 11.2976L3.13024 11.8605Z" fill="white"/>
</g>
</svg>
