<svg width="20" height="20" viewBox="0 0 20 20" fill="none" xmlns="http://www.w3.org/2000/svg">
<path d="M4.37484 3.3335H15.6248C16.3166 3.33345 16.9822 3.59812 17.485 4.07322C17.9879 4.54832 18.2898 5.19782 18.329 5.8885L18.3332 6.04183V13.9585C18.3332 14.6503 18.0685 15.3159 17.5934 15.8187C17.1183 16.3215 16.4688 16.6235 15.7782 16.6627L15.6248 16.6668H4.37484C3.68306 16.6669 3.01748 16.4022 2.51464 15.9271C2.01181 15.452 1.70984 14.8025 1.67067 14.1118L1.6665 13.9585V6.04183C1.66646 5.35005 1.93113 4.68447 2.40623 4.18164C2.88133 3.6788 3.53083 3.37683 4.2215 3.33766L4.37484 3.3335H15.6248H4.37484ZM17.0832 7.811L10.2915 11.386C10.2148 11.4265 10.1305 11.4506 10.044 11.4568C9.95751 11.463 9.87066 11.451 9.789 11.4218L9.709 11.3868L2.9165 7.81183V13.9585C2.91652 14.3245 3.05415 14.6771 3.30207 14.9463C3.54999 15.2155 3.89009 15.3817 4.25484 15.4118L4.37484 15.4168H15.6248C15.991 15.4168 16.3437 15.2791 16.6129 15.031C16.8822 14.7829 17.0483 14.4426 17.0782 14.0777L17.0832 13.9585V7.811ZM15.6248 4.5835H4.37484C4.00885 4.58351 3.65624 4.72114 3.38701 4.96906C3.11778 5.21699 2.95162 5.55708 2.9215 5.92183L2.9165 6.04183V6.39933L9.99984 10.1268L17.0832 6.3985V6.04183C17.0831 5.67571 16.9454 5.32299 16.6973 5.05374C16.4492 4.78449 16.1089 4.61841 15.744 4.5885L15.6248 4.5835Z" fill="#3F4E65"/>
</svg>
