<svg width="61" height="39" viewBox="0 0 61 39" fill="none" xmlns="http://www.w3.org/2000/svg">
<g clip-path="url(#clip0_34_71)">
<rect width="60.9375" height="39" rx="3" fill="#0F3560"/>
<path d="M35.5658 29.12H24.8633V9.88574H35.5658V29.12Z" fill="#FF5F00"/>
<path d="M25.5488 19.5013C25.5488 15.5995 27.3757 12.124 30.2205 9.88416C28.1402 8.2463 25.5146 7.26873 22.6612 7.26873C15.906 7.26873 10.4302 12.7454 10.4302 19.5013C10.4302 26.2573 15.906 31.7339 22.6612 31.7339C25.5146 31.7339 28.1402 30.7563 30.2205 29.1185C27.3757 26.8787 25.5488 23.4031 25.5488 19.5013Z" fill="#EB001B"/>
<path d="M50.0001 19.5013C50.0001 26.2573 44.5243 31.7339 37.7691 31.7339C34.9157 31.7339 32.2901 30.7563 30.209 29.1185C33.0546 26.8787 34.8815 23.4031 34.8815 19.5013C34.8815 15.5995 33.0546 12.124 30.209 9.88416C32.2901 8.2463 34.9157 7.26873 37.7691 7.26873C44.5243 7.26873 50.0001 12.7454 50.0001 19.5013Z" fill="#F79E1B"/>
<path d="M19.6338 19.5787C19.6338 19.0443 19.9839 18.6054 20.5561 18.6054C21.1028 18.6054 21.4718 19.0254 21.4718 19.5787C21.4718 20.1319 21.1028 20.5519 20.5561 20.5519C19.9839 20.5519 19.6338 20.113 19.6338 19.5787ZM22.095 19.5787V18.0587H21.434V18.4278C21.2243 18.1541 20.9062 17.9823 20.4738 17.9823C19.6214 17.9823 18.9531 18.6505 18.9531 19.5787C18.9531 20.5075 19.6214 21.175 20.4738 21.175C20.9062 21.175 21.2243 21.0033 21.434 20.7295V21.0986H22.095V19.5787ZM44.4314 19.5787C44.4314 19.0443 44.7815 18.6054 45.3537 18.6054C45.9011 18.6054 46.2695 19.0254 46.2695 19.5787C46.2695 20.1319 45.9011 20.5519 45.3537 20.5519C44.7815 20.5519 44.4314 20.113 44.4314 19.5787ZM46.8933 19.5787V16.8379H46.2316V18.4278C46.022 18.1541 45.7039 17.9823 45.2715 17.9823C44.419 17.9823 43.7508 18.6505 43.7508 19.5787C43.7508 20.5075 44.419 21.175 45.2715 21.175C45.7039 21.175 46.022 21.0033 46.2316 20.7295V21.0986H46.8933V19.5787ZM30.2997 18.5741C30.7255 18.5741 30.9993 18.8412 31.0691 19.3115H29.4917C29.5623 18.8725 29.8287 18.5741 30.2997 18.5741ZM30.3128 17.9823C29.4218 17.9823 28.7987 18.6309 28.7987 19.5787C28.7987 20.5454 29.4473 21.175 30.3572 21.175C30.8151 21.175 31.2344 21.0608 31.6035 20.7492L31.2795 20.2593C31.0247 20.4624 30.7001 20.5774 30.3951 20.5774C29.9692 20.5774 29.5812 20.3801 29.4858 19.8327H31.7432C31.7498 19.7504 31.7563 19.6675 31.7563 19.5787C31.7498 18.6309 31.1645 17.9823 30.3128 17.9823ZM38.294 19.5787C38.294 19.0443 38.6442 18.6054 39.2164 18.6054C39.7631 18.6054 40.1321 19.0254 40.1321 19.5787C40.1321 20.1319 39.7631 20.5519 39.2164 20.5519C38.6442 20.5519 38.294 20.113 38.294 19.5787ZM40.7552 19.5787V18.0587H40.0943V18.4278C39.8839 18.1541 39.5665 17.9823 39.1341 17.9823C38.2817 17.9823 37.6134 18.6505 37.6134 19.5787C37.6134 20.5075 38.2817 21.175 39.1341 21.175C39.5665 21.175 39.8839 21.0033 40.0943 20.7295V21.0986H40.7552V19.5787ZM34.5611 19.5787C34.5611 20.501 35.2032 21.175 36.183 21.175C36.6409 21.175 36.9459 21.0731 37.2764 20.8125L36.959 20.2782C36.7108 20.4566 36.4501 20.5519 36.1633 20.5519C35.6356 20.5454 35.2476 20.1639 35.2476 19.5787C35.2476 18.9934 35.6356 18.6119 36.1633 18.6054C36.4501 18.6054 36.7108 18.7007 36.959 18.8791L37.2764 18.3448C36.9459 18.0842 36.6409 17.9823 36.183 17.9823C35.2032 17.9823 34.5611 18.6563 34.5611 19.5787ZM43.0832 17.9823C42.7018 17.9823 42.4536 18.1606 42.2818 18.4278V18.0587H41.6266V21.0986H42.2883V19.3945C42.2883 18.8915 42.5045 18.6119 42.9369 18.6119C43.0709 18.6119 43.2106 18.6309 43.3504 18.6884L43.5542 18.0652C43.4079 18.0077 43.2172 17.9823 43.0832 17.9823ZM25.3642 18.3004C25.0461 18.0907 24.6078 17.9823 24.1245 17.9823C23.3543 17.9823 22.8586 18.3513 22.8586 18.9555C22.8586 19.4513 23.2277 19.757 23.9076 19.8524L24.2198 19.8968C24.5824 19.9477 24.7534 20.0431 24.7534 20.2149C24.7534 20.45 24.5118 20.584 24.0604 20.584C23.6025 20.584 23.2721 20.4376 23.0493 20.2658L22.7377 20.7805C23.1003 21.0477 23.5581 21.175 24.0539 21.175C24.9318 21.175 25.4406 20.7616 25.4406 20.1829C25.4406 19.6485 25.0402 19.369 24.3785 19.2736L24.067 19.2285C23.7809 19.1907 23.5516 19.1339 23.5516 18.93C23.5516 18.7073 23.7678 18.5741 24.1303 18.5741C24.5183 18.5741 24.8939 18.7204 25.0781 18.8347L25.3642 18.3004ZM33.8929 17.9823C33.5114 17.9823 33.2632 18.1606 33.0921 18.4278V18.0587H32.437V21.0986H33.0979V19.3945C33.0979 18.8915 33.3141 18.6119 33.7465 18.6119C33.8805 18.6119 34.0202 18.6309 34.16 18.6884L34.3638 18.0652C34.2175 18.0077 34.0268 17.9823 33.8929 17.9823ZM28.252 18.0587H27.171V17.1364H26.5027V18.0587H25.8861V18.6629H26.5027V20.0496C26.5027 20.755 26.7764 21.175 27.5582 21.175C27.845 21.175 28.1755 21.0862 28.3852 20.9399L28.1945 20.3736C27.9972 20.4879 27.781 20.5454 27.6092 20.5454C27.2787 20.5454 27.171 20.3415 27.171 20.0365V18.6629H28.252V18.0587ZM18.3686 21.0986V19.1907C18.3686 18.4722 17.9107 17.9888 17.1726 17.9823C16.7846 17.9757 16.3842 18.0965 16.1039 18.5231C15.8943 18.1861 15.5638 17.9823 15.0994 17.9823C14.7747 17.9823 14.4573 18.0776 14.2091 18.4336V18.0587H13.5474V21.0986H14.2149V19.4134C14.2149 18.8856 14.5075 18.6054 14.9596 18.6054C15.3985 18.6054 15.6206 18.8915 15.6206 19.4069V21.0986H16.2888V19.4134C16.2888 18.8856 16.5938 18.6054 17.0328 18.6054C17.4841 18.6054 17.7003 18.8915 17.7003 19.4069V21.0986H18.3686Z" fill="white"/>
</g>
<defs>
<clipPath id="clip0_34_71">
<rect width="61" height="39" fill="white"/>
</clipPath>
</defs>
</svg>
