<svg width="15" height="15" viewBox="0 0 15 15" fill="none" xmlns="http://www.w3.org/2000/svg">
<g clip-path="url(#clip0_0_1975)">
<path d="M3.50565 3.04171L9.48544 1.40948L9.16877 0.769387C8.96158 0.353329 8.45624 0.181515 8.04019 0.388702L2.68701 3.04171H3.50565Z" fill="#3F4E65"/>
<path d="M11.3413 1.45654C11.2672 1.45654 11.1931 1.46665 11.1189 1.48686L9.71413 1.87092L5.42383 3.0416H10.2936H12.416L12.1532 2.0781C12.0521 1.70247 11.7119 1.45654 11.3413 1.45654Z" fill="#3F4E65"/>
<path d="M13.2937 3.63135H13.1016H12.8405H12.5794H10.5867H3.26446H2.30432H1.49579H1.34587H0.843908C0.577765 3.63135 0.340258 3.75431 0.185289 3.94802C0.114542 4.0373 0.0606401 4.14005 0.03032 4.25291C0.0117911 4.32366 0 4.39777 0 4.47357V4.57464V5.53477V13.8576C0 14.3226 0.377316 14.6999 0.842224 14.6999H13.292C13.7569 14.6999 14.1342 14.3226 14.1342 13.8576V11.5078H9.13644C8.34644 11.5078 7.70466 10.866 7.70466 10.076V9.30457V9.04348V8.78239V8.20294C7.70466 7.81551 7.85961 7.46348 8.11061 7.20576C8.33296 6.97666 8.63111 6.82169 8.96463 6.78295C9.02021 6.77623 9.07749 6.77284 9.13476 6.77284H13.4335H13.6946H13.9556H14.1342V4.47357C14.1359 4.00866 13.7586 3.63135 13.2937 3.63135Z" fill="#3F4E65"/>
<path d="M14.7252 7.57807C14.6409 7.50058 14.5415 7.44163 14.4304 7.40289C14.3445 7.37427 14.2535 7.35742 14.1575 7.35742H14.1356H14.1188H13.8577H12.9161H9.13617C8.67124 7.35742 8.29395 7.73472 8.29395 8.19965V8.61906V8.88015V9.14124V10.0744C8.29395 10.5393 8.67124 10.9166 9.13617 10.9166H14.1356H14.1575C14.2535 10.9166 14.3445 10.8998 14.4304 10.8712C14.5415 10.8341 14.6409 10.7735 14.7252 10.696C14.8936 10.5427 14.9997 10.3203 14.9997 10.0744V8.19965C14.9997 7.9537 14.8936 7.73134 14.7252 7.57807ZM10.8947 9.30463C10.8947 9.53708 10.7061 9.72574 10.4736 9.72574H10.194C9.96155 9.72574 9.77289 9.53708 9.77289 9.30463V9.02501C9.77289 8.89025 9.83521 8.77064 9.93459 8.69484C10.007 8.63925 10.0963 8.6039 10.194 8.6039H10.2647H10.4736C10.7061 8.6039 10.8947 8.79254 10.8947 9.02501V9.30463Z" fill="#3F4E65"/>
</g>
<defs>
<clipPath id="clip0_0_1975">
<rect width="15" height="15" fill="white"/>
</clipPath>
</defs>
</svg>
