<svg width="18" height="18" viewBox="0 0 18 18" fill="none" xmlns="http://www.w3.org/2000/svg">
<path d="M2.20206 3.15157L2.22614 3.13652L5.27043 1.63672L8.55624 6.01779L7.04452 8.03354C7.08976 8.79373 7.41213 9.51095 7.95062 10.0494C8.48911 10.5879 9.20634 10.9103 9.96653 10.9555L11.9823 9.4438L16.3633 12.7295L14.876 15.7484L14.8634 15.7739L14.8484 15.7979C14.769 15.9258 14.6582 16.0312 14.5266 16.1042C14.3949 16.1772 14.2468 16.2152 14.0963 16.2148H13.3107C11.7972 16.2148 10.2985 15.9166 8.90011 15.3374C7.50178 14.7582 6.23121 13.9092 5.16097 12.839C4.09073 11.7688 3.24177 10.4982 2.66257 9.09985C2.08336 7.70151 1.78524 6.20278 1.78525 4.68923V3.90366C1.78477 3.75315 1.82282 3.60502 1.89578 3.47337C1.96874 3.34172 2.07418 3.23094 2.20206 3.15157ZM2.91025 4.68923C2.91025 10.4241 7.57591 15.0898 13.3107 15.0898H13.9464L14.9415 13.0696L11.982 10.85L10.3344 12.0857H10.1469C9.02466 12.0844 7.94875 11.6381 7.15522 10.8445C6.36168 10.051 5.91533 8.9751 5.91407 7.85287V7.66538L7.14978 6.01775L4.93043 3.05847L2.91025 4.05378V4.68923Z" fill="#3F4E65"/>
</svg>
