<svg width="10" height="10" viewBox="0 0 10 10" fill="none" xmlns="http://www.w3.org/2000/svg">
<g clip-path="url(#clip0_0_2707)">
<path d="M6.35338 6.71251L7.05338 6.01251C7.14766 5.9194 7.26695 5.85566 7.39675 5.82904C7.52656 5.80241 7.66131 5.81404 7.78463 5.86251L8.63776 6.20314C8.76238 6.25372 8.86925 6.34007 8.94488 6.45129C9.02051 6.56252 9.06153 6.69364 9.06276 6.82814V8.39064C9.06203 8.48213 9.0428 8.57253 9.00621 8.6564C8.96963 8.74026 8.91645 8.81585 8.84989 8.87863C8.78332 8.9414 8.70474 8.99005 8.61887 9.02165C8.53301 9.05325 8.44163 9.06715 8.35026 9.06251C2.37213 8.69064 1.16588 3.62814 0.937755 1.69064C0.927166 1.59549 0.936841 1.49918 0.966146 1.40805C0.99545 1.31691 1.04372 1.23301 1.10778 1.16187C1.17183 1.09073 1.25023 1.03395 1.3378 0.995283C1.42538 0.956614 1.52015 0.936925 1.61588 0.937513H3.12526C3.25995 0.937911 3.39144 0.978596 3.50282 1.05433C3.6142 1.13007 3.70037 1.2374 3.75026 1.36251L4.09088 2.21564C4.14096 2.33847 4.15374 2.47334 4.12761 2.60339C4.10149 2.73344 4.03763 2.85292 3.94401 2.94689L3.24401 3.64689C3.24401 3.64689 3.64713 6.37501 6.35338 6.71251Z" fill="white"/>
</g>
<defs>
<clipPath id="clip0_0_2707">
<rect width="10" height="10" fill="white"/>
</clipPath>
</defs>
</svg>
