<svg width="39" height="39" viewBox="0 0 39 39" fill="none" xmlns="http://www.w3.org/2000/svg">
<g clip-path="url(#clip0_34_49)">
<path d="M19.5 0C8.73036 0 0 8.73036 0 19.5C0 30.2696 8.73036 39 19.5 39C30.2696 39 39 30.2696 39 19.5C39 8.73036 30.2696 0 19.5 0Z" fill="#40B3E0"/>
<path d="M28.9884 11.217L25.5054 28.7776C25.5054 28.7776 25.0183 29.9954 23.6788 29.4108L15.6414 23.2488L12.7188 21.8363L7.79905 20.18C7.79905 20.18 7.04404 19.9122 6.97091 19.3277C6.89779 18.7431 7.82343 18.4266 7.82343 18.4266L27.3807 10.7545C27.3807 10.7545 28.9882 10.0483 28.9882 11.2173" fill="white"/>
<path d="M15.0237 28.5801C15.0237 28.5801 14.7891 28.5581 14.4966 27.6325C14.2046 26.707 12.7188 21.8359 12.7188 21.8359L24.5312 14.3345C24.5312 14.3345 25.2132 13.9205 25.1888 14.3345C25.1888 14.3345 25.3106 14.4077 24.9451 14.7486C24.5799 15.0897 15.6658 23.1025 15.6658 23.1025" fill="#D2E5F1"/>
<path d="M18.7233 25.6112L15.5443 28.5097C15.5443 28.5097 15.2957 28.6983 15.0239 28.5801L15.6327 23.1963" fill="#B5CFE4"/>
</g>
<defs>
<clipPath id="clip0_34_49">
<rect width="39" height="39" fill="white"/>
</clipPath>
</defs>
</svg>
