<svg width="20" height="16" viewBox="0 0 20 16" fill="none" xmlns="http://www.w3.org/2000/svg">
<g opacity="0.23" clip-path="url(#clip0_0_1059)">
<path d="M13.3031 7.99994C12.775 7.99994 12.2781 7.71869 12.0093 7.26869L9.99995 3.93743L7.9937 7.26869C7.72183 7.72181 7.22495 8.00306 6.69683 8.00306C6.5562 8.00306 6.41558 7.98431 6.2812 7.94369L1.99995 6.71868V12.2812C1.99995 12.7406 2.31245 13.1406 2.7562 13.2499L9.51245 14.9406C9.8312 15.0187 10.1656 15.0187 10.4812 14.9406L17.2437 13.2499C17.6875 13.1374 18 12.7374 18 12.2812V6.71868L13.7187 7.94056C13.5843 7.98119 13.4437 7.99994 13.3031 7.99994ZM19.9468 4.49369L18.3375 1.28118C18.2406 1.08743 18.0312 0.974934 17.8156 1.00306L9.99995 1.99993L12.8656 6.75306C12.9843 6.94993 13.2218 7.04368 13.4437 6.98118L19.6281 5.21556C19.9375 5.12493 20.0875 4.78118 19.9468 4.49369ZM1.66245 1.28118L0.0530782 4.49369C-0.0906718 4.78118 0.0624532 5.12493 0.368703 5.21243L6.55308 6.97806C6.77495 7.04056 7.01245 6.94681 7.1312 6.74993L9.99995 1.99993L2.1812 1.00306C1.96558 0.978059 1.75933 1.08743 1.66245 1.28118Z" fill="#3F4E65"/>
</g>
<defs>
<clipPath id="clip0_0_1059">
<rect width="20" height="16" fill="white"/>
</clipPath>
</defs>
</svg>
